<?xml version="1.0" encoding="UTF-8"?>
<!-- Generated by Pixelmator Pro 3.3.2 -->
<svg width="32" height="32" viewBox="0 0 32 32" xmlns="http://www.w3.org/2000/svg" xmlns:xlink="http://www.w3.org/1999/xlink">
    <g id="XMLID10">
        <g id="Group">
            <path id="Path" fill="#000000" stroke="none" d="M 31.999914 22.598186 C 31.999914 20.725693 31.43918 18.917633 30.378193 17.36945 C 29.615051 16.255882 28.63233 15.331148 27.493507 14.643953 C 28.834305 13.374205 29.673212 11.579546 29.673212 9.591503 C 29.673212 5.752703 26.550043 2.629532 22.711329 2.629532 C 20.435059 2.629532 18.302773 3.755295 17.007595 5.603306 C 16.678474 5.555368 16.342222 5.529509 15.999957 5.529509 C 15.657692 5.529509 15.321526 5.555454 14.992405 5.603306 C 13.697141 3.755295 11.564855 2.629532 9.288671 2.629532 C 5.44987 2.629532 2.326699 5.752703 2.326699 9.591503 C 2.326699 11.579546 3.16561 13.374205 4.506493 14.643953 C 3.367584 15.331062 2.384861 16.255882 1.621808 17.369362 C 0.56082 18.917633 0 20.725693 0 22.598186 L 0 26.470577 L 6.711372 26.470577 L 6.711372 29.370468 L 25.288713 29.370468 L 25.288713 26.470577 L 32 26.470577 L 32 22.598186 L 31.999914 22.598186 Z M 22.711329 4.347816 C 25.602715 4.347816 27.955015 6.700117 27.955015 9.591589 C 27.955015 12.483061 25.602715 14.835361 22.711329 14.835361 C 22.659527 14.835361 22.607721 14.834587 22.555832 14.833042 C 22.559782 14.822046 22.563047 14.810791 22.566914 14.799795 C 22.656433 14.546017 22.731089 14.285366 22.790966 14.019133 C 22.795177 14.000231 22.79999 13.981503 22.804026 13.962517 C 22.819578 13.890696 22.833235 13.818188 22.846552 13.745508 C 22.852821 13.711143 22.859268 13.676865 22.865023 13.642416 C 22.875847 13.577555 22.885639 13.512434 22.894661 13.447056 C 22.900932 13.401609 22.906605 13.356163 22.912014 13.310631 C 22.9188 13.252901 22.925417 13.195082 22.930828 13.136921 C 22.936325 13.077557 22.940449 13.018108 22.944405 12.958572 C 22.947495 12.911667 22.951363 12.864931 22.953508 12.817766 C 22.958235 12.71665 22.960899 12.615362 22.961241 12.513988 C 22.961241 12.506514 22.961843 12.499212 22.961843 12.491653 C 22.961843 12.487614 22.961496 12.483576 22.961496 12.479538 C 22.961329 12.376017 22.958321 12.273096 22.953682 12.170521 C 22.952305 12.140709 22.950502 12.110985 22.948784 12.081261 C 22.943714 11.994061 22.937099 11.907293 22.928938 11.820953 C 22.927048 11.801367 22.925503 11.781778 22.923529 11.762276 C 22.663906 9.252932 21.078611 7.105097 18.791687 6.111635 C 19.777159 5.004511 21.202578 4.347816 22.711329 4.347816 Z M 14.185624 7.571331 C 14.202376 7.565231 14.219302 7.559475 14.236053 7.553461 C 14.2882 7.534819 14.340777 7.517122 14.393612 7.500027 C 14.433647 7.487225 14.473938 7.474854 14.514487 7.462997 C 14.543955 7.454321 14.573507 7.44599 14.603147 7.437738 C 14.656068 7.423223 14.709246 7.409046 14.762939 7.396074 C 15.159843 7.299683 15.573757 7.247364 15.999785 7.247364 C 16.426155 7.247707 16.840242 7.300112 17.237232 7.396503 C 17.290583 7.409389 17.343416 7.423479 17.39608 7.437912 C 17.426147 7.446245 17.456217 7.454666 17.486029 7.463512 C 17.526062 7.475283 17.565924 7.487482 17.605528 7.500113 C 17.65905 7.51738 17.712227 7.53525 17.764977 7.554148 C 17.781214 7.559904 17.797451 7.565403 17.813602 7.571331 C 19.567284 8.219866 20.882133 9.78059 21.179726 11.674648 C 21.182045 11.68977 21.18428 11.704975 21.186514 11.720181 C 21.196051 11.784355 21.204039 11.849045 21.21117 11.913908 C 21.213745 11.93779 21.216497 11.961586 21.218817 11.985558 C 21.224485 12.044748 21.228697 12.10437 21.232475 12.164162 C 21.23402 12.189764 21.23617 12.215279 21.237373 12.240965 C 21.240978 12.317341 21.242956 12.394144 21.243214 12.471376 C 21.243214 12.478079 21.243643 12.484608 21.243643 12.491308 C 21.243643 12.494402 21.243471 12.497581 21.243471 12.500673 C 21.243301 12.575415 21.241066 12.649639 21.237803 12.72361 C 21.236771 12.746891 21.235741 12.770172 21.234365 12.793367 C 21.230328 12.864845 21.225002 12.93598 21.218128 13.006596 C 21.215464 13.033916 21.211859 13.06115 21.208763 13.088383 C 21.203524 13.134087 21.197681 13.179705 21.191326 13.225065 C 21.18634 13.260374 21.181358 13.295771 21.175688 13.330908 C 21.167011 13.384428 21.157391 13.437607 21.147079 13.490612 C 21.137888 13.537777 21.127836 13.58477 21.117355 13.631678 C 21.111084 13.659943 21.104555 13.688206 21.097769 13.716297 C 21.081017 13.785973 21.062632 13.855215 21.043041 13.9242 C 21.035227 13.951605 21.027922 13.979181 21.019678 14.00633 C 21.007734 14.045849 20.994848 14.085024 20.982048 14.124199 C 20.971739 14.155556 20.961172 14.186741 20.950262 14.21784 C 20.937889 14.253151 20.925692 14.288546 20.912632 14.323597 C 20.890381 14.383133 20.867014 14.442152 20.842701 14.500656 C 20.831877 14.526773 20.820364 14.552631 20.809111 14.578663 C 20.787891 14.627375 20.766069 14.675827 20.743389 14.723764 C 20.740725 14.729435 20.738064 14.735106 20.735401 14.740776 C 20.72724 14.757784 20.719162 14.774881 20.710831 14.791891 C 20.6854 14.843782 20.658941 14.895069 20.631792 14.945929 C 20.621225 14.965687 20.611004 14.985704 20.600178 15.005377 C 20.599489 15.006666 20.598804 15.007868 20.598118 15.009071 C 20.568392 15.063196 20.537378 15.116459 20.50585 15.16938 C 20.493305 15.190342 20.480934 15.21139 20.468134 15.232094 C 20.433769 15.287849 20.398462 15.343002 20.362122 15.397299 C 20.339527 15.431063 20.315903 15.464136 20.292534 15.497383 C 20.27269 15.525562 20.25293 15.553827 20.232569 15.581575 C 20.206194 15.617487 20.179306 15.652966 20.151985 15.688276 C 20.133429 15.712244 20.1147 15.736042 20.0958 15.759754 C 20.066933 15.795835 20.037811 15.831745 20.008085 15.867054 C 19.989616 15.888962 19.970631 15.910439 19.951815 15.932001 C 19.920887 15.967484 19.890047 16.003048 19.858259 16.03767 C 19.839359 16.058205 19.819771 16.077965 19.800528 16.098236 C 19.748812 16.152792 19.695889 16.206142 19.641939 16.258461 C 19.609894 16.289473 19.578022 16.320574 19.545202 16.350727 C 19.522524 16.371605 19.499243 16.391876 19.476131 16.412411 C 19.438503 16.445831 19.400616 16.478905 19.362043 16.511208 C 19.342457 16.527615 19.322697 16.543854 19.302851 16.560003 C 19.256203 16.597977 19.208952 16.635174 19.160929 16.6716 C 19.147869 16.68148 19.134983 16.691532 19.12184 16.701324 C 18.248995 17.350204 17.168591 17.734823 15.999872 17.734823 C 14.831066 17.734823 13.750491 17.350119 12.877645 16.701069 C 12.864758 16.691444 12.85213 16.681568 12.83933 16.67186 C 12.791134 16.635345 12.743627 16.597891 12.696805 16.559746 C 12.677132 16.543682 12.657458 16.527615 12.638043 16.511292 C 12.599297 16.478821 12.561324 16.445572 12.523524 16.412067 C 12.500586 16.391621 12.477391 16.371517 12.454798 16.350727 C 12.421892 16.320488 12.389935 16.289303 12.357804 16.258289 C 12.303595 16.205797 12.250589 16.152277 12.198699 16.097551 C 12.179712 16.077534 12.160296 16.058033 12.141655 16.037758 C 12.109783 16.003048 12.07894 15.967398 12.048014 15.931917 C 12.029198 15.910353 12.010298 15.888962 11.991827 15.867054 C 11.962017 15.831745 11.93298 15.795835 11.904114 15.759838 C 11.885214 15.736128 11.8664 15.712332 11.847843 15.688276 C 11.820609 15.653053 11.793719 15.617571 11.767346 15.581661 C 11.746984 15.553827 11.727139 15.525476 11.707294 15.497213 C 11.683927 15.464052 11.660387 15.431063 11.637879 15.397385 C 11.601367 15.342831 11.565886 15.287506 11.531437 15.231579 C 11.518807 15.211046 11.506609 15.190342 11.494238 15.169638 C 11.462193 15.115944 11.430836 15.061993 11.400681 15.007095 C 11.3896 14.986906 11.379117 14.966375 11.368207 14.9461 C 11.34106 14.895069 11.314513 14.843609 11.288998 14.791634 C 11.279891 14.773163 11.271044 14.75452 11.262195 14.735964 C 11.260819 14.73313 11.259531 14.730293 11.258243 14.727459 C 11.234446 14.677288 11.211679 14.6266 11.189428 14.575485 C 11.178863 14.551172 11.168124 14.526945 11.157986 14.502546 C 11.133071 14.442755 11.109275 14.382444 11.086509 14.321619 C 11.074224 14.288803 11.062883 14.25564 11.051286 14.222567 C 11.039343 14.188631 11.027832 14.15444 11.016577 14.120161 C 11.004465 14.083048 10.992266 14.045935 10.980926 14.00865 C 10.964002 13.952894 10.948021 13.896795 10.932988 13.840353 C 10.922421 13.800749 10.912885 13.760799 10.903177 13.720938 C 10.895617 13.689581 10.888314 13.658224 10.881356 13.626694 C 10.872765 13.588036 10.864088 13.549461 10.856357 13.51063 C 10.844414 13.45015 10.833504 13.389324 10.823709 13.328157 C 10.818384 13.295168 10.813745 13.262093 10.80902 13.229103 C 10.80206 13.180222 10.79579 13.131081 10.790205 13.081768 C 10.787457 13.057455 10.784277 13.033142 10.781786 13.008829 C 10.774655 12.936407 10.769243 12.86347 10.76512 12.790276 C 10.763917 12.769226 10.762971 12.748178 10.762028 12.727131 C 10.758505 12.648867 10.756013 12.570347 10.756013 12.491308 C 10.756013 12.406601 10.758418 12.322495 10.762456 12.238733 C 10.763573 12.215967 10.765463 12.193373 10.766751 12.170692 C 10.770533 12.107807 10.775084 12.045092 10.781098 11.982721 C 10.78316 11.960987 10.785652 11.939337 10.787971 11.917688 C 10.795359 11.850163 10.803693 11.782982 10.813659 11.716228 C 10.815548 11.703257 10.817439 11.690197 10.819501 11.677225 C 11.116147 9.782051 12.431257 8.220295 14.185624 7.571331 Z M 4.044899 9.591589 C 4.044899 6.700203 6.397199 4.347816 9.288671 4.347816 C 10.797507 4.347816 12.222839 5.004601 13.208313 6.111462 C 10.920616 7.105268 9.334977 9.254135 9.07613 11.764511 C 9.074326 11.781519 9.073037 11.798616 9.071405 11.815712 C 9.062813 11.905144 9.056026 11.994921 9.050872 12.085213 C 9.049326 12.112703 9.047608 12.140108 9.046319 12.167686 C 9.041422 12.275158 9.038072 12.382977 9.038072 12.491566 C 9.038072 12.601189 9.04125 12.71055 9.046405 12.819828 C 9.048466 12.863813 9.052074 12.90737 9.054911 12.951099 C 9.059119 13.013985 9.063415 13.076872 9.069257 13.139585 C 9.074411 13.195341 9.080769 13.250753 9.087298 13.306164 C 9.092968 13.354446 9.098982 13.402555 9.105682 13.450665 C 9.114446 13.513809 9.123896 13.576694 9.134291 13.639324 C 9.140562 13.676521 9.147434 13.713634 9.154222 13.750748 C 9.167109 13.820852 9.180253 13.890781 9.195201 13.96011 C 9.200184 13.982964 9.205853 14.005642 9.211008 14.02841 C 9.269341 14.286396 9.341763 14.538973 9.428017 14.785276 C 9.433515 14.80117 9.438326 14.817236 9.443911 14.833042 C 9.392106 14.834587 9.340217 14.835361 9.288499 14.835361 C 6.397199 14.835276 4.044899 12.482975 4.044899 9.591589 Z M 8.151824 20.545197 C 8.132924 20.575006 8.114882 20.605333 8.096326 20.635315 C 8.057066 20.698715 8.018148 20.762291 7.980519 20.826466 C 7.959472 20.862289 7.939198 20.898373 7.918751 20.934452 C 7.884902 20.993988 7.851483 21.053696 7.819009 21.113918 C 7.798563 21.151806 7.77846 21.189863 7.758528 21.227922 C 7.727257 21.287802 7.69676 21.348022 7.666862 21.408417 C 7.648049 21.44639 7.62932 21.484276 7.611107 21.522421 C 7.580695 21.586082 7.5514 21.650255 7.522448 21.714516 C 7.506726 21.749481 7.490576 21.784189 7.475369 21.819326 C 7.441864 21.896301 7.409906 21.973877 7.378549 22.051712 C 7.369356 22.074478 7.359563 22.096987 7.350628 22.119755 C 7.310852 22.220871 7.272794 22.322674 7.236712 22.424992 C 7.228464 22.448444 7.221076 22.472157 7.212914 22.495609 C 7.185767 22.574474 7.159307 22.653599 7.134306 22.733063 C 7.122881 22.769577 7.112314 22.806259 7.101318 22.842857 C 7.081129 22.91021 7.061284 22.97765 7.04264 23.045521 C 7.031558 23.085896 7.020991 23.126358 7.010424 23.16691 C 6.993414 23.232029 6.977091 23.297321 6.961627 23.362873 C 6.951748 23.404364 6.942126 23.445858 6.932933 23.487438 C 6.918158 23.553848 6.904325 23.620514 6.891009 23.687265 C 6.88302 23.727386 6.874773 23.767506 6.867299 23.807796 C 6.85381 23.880478 6.841697 23.953503 6.829928 24.026609 C 6.82443 24.060974 6.818329 24.095167 6.813175 24.12953 C 6.797196 24.236917 6.782677 24.344563 6.770478 24.452723 C 6.770307 24.454014 6.77022 24.455299 6.770134 24.456591 C 6.759052 24.554956 6.749516 24.653496 6.741527 24.752377 L 1.718199 24.752377 L 1.718199 22.598186 C 1.718199 19.655083 3.41011 17.01292 6.060776 15.75709 C 7.026404 16.264645 8.124076 16.553562 9.288586 16.553562 C 9.625352 16.553562 9.96315 16.528648 10.29837 16.479336 C 10.350604 16.553818 10.403696 16.627529 10.458678 16.699865 C 10.477235 16.724178 10.496479 16.74789 10.51538 16.771946 C 10.569674 16.84136 10.624743 16.91 10.681615 16.977268 C 10.704896 17.004847 10.728779 17.031822 10.752491 17.059055 C 10.805755 17.120224 10.859878 17.180618 10.915204 17.239811 C 10.944242 17.270996 10.973795 17.301666 11.003348 17.332336 C 11.053949 17.384481 11.105238 17.435856 11.157384 17.486458 C 11.176971 17.505444 11.195442 17.525547 11.215202 17.544361 C 11.140546 17.589462 11.066577 17.635685 10.993296 17.682848 C 10.981355 17.690495 10.969671 17.69857 10.957816 17.706299 C 10.884534 17.753895 10.812026 17.802521 10.740205 17.852089 C 10.715377 17.869272 10.690636 17.886623 10.665894 17.90398 C 10.601891 17.949081 10.538574 17.994959 10.475775 18.041607 C 10.455929 18.056383 10.435826 18.070816 10.416154 18.085766 C 10.336257 18.14616 10.257306 18.207672 10.179385 18.270557 C 10.162375 18.284302 10.145709 18.298477 10.128698 18.312397 C 10.066671 18.363167 10.005246 18.414801 9.944592 18.467205 C 9.921054 18.48748 9.897687 18.507927 9.874319 18.52846 C 9.813581 18.581982 9.753615 18.636276 9.694252 18.691345 C 9.678788 18.705692 9.66298 18.71978 9.647603 18.734299 C 9.574751 18.802856 9.503016 18.8727 9.432312 18.943748 C 9.413928 18.962219 9.395973 18.981033 9.377759 18.999588 C 9.323636 19.054829 9.270114 19.11067 9.217279 19.167286 C 9.196318 19.189793 9.175356 19.212303 9.154566 19.235069 C 9.095116 19.300018 9.036525 19.365822 8.978879 19.432575 C 8.96986 19.443058 8.960495 19.453194 8.951474 19.46376 C 8.885754 19.540478 8.821492 19.618656 8.758091 19.697607 C 8.740394 19.719601 8.723125 19.741938 8.705686 19.764187 C 8.658006 19.824753 8.611013 19.885921 8.564794 19.947689 C 8.546925 19.971573 8.528969 19.995285 8.511357 20.019341 C 8.450877 20.101814 8.391171 20.184975 8.33318 20.269596 C 8.270896 20.360489 8.210587 20.452499 8.151824 20.545197 Z M 8.429571 27.652355 L 8.429571 26.470663 L 8.429571 25.498161 C 8.429571 25.402803 8.431376 25.307785 8.434897 25.213026 C 8.436014 25.181841 8.438506 25.150913 8.440052 25.119816 C 8.443145 25.056587 8.446066 24.993271 8.450705 24.930298 C 8.45354 24.892067 8.457836 24.854181 8.461272 24.816036 C 8.466254 24.76054 8.470722 24.704954 8.476908 24.649801 C 8.481461 24.609423 8.487389 24.569305 8.492542 24.529011 C 8.499245 24.476521 8.505516 24.423944 8.513247 24.371712 C 8.519519 24.33013 8.527079 24.288895 8.533952 24.247486 C 8.542371 24.197144 8.550189 24.146626 8.559639 24.09654 C 8.567628 24.054188 8.576907 24.012264 8.585584 23.970081 C 8.59555 23.921457 8.605085 23.872662 8.615996 23.824379 C 8.625618 23.781765 8.636615 23.739586 8.646924 23.697147 C 8.658522 23.649895 8.669604 23.602386 8.68206 23.555395 C 8.693401 23.512697 8.705944 23.470428 8.717971 23.428074 C 8.73103 23.381943 8.743744 23.335724 8.757662 23.289932 C 8.770634 23.247322 8.784895 23.205055 8.798554 23.162701 C 8.813159 23.117767 8.827334 23.072752 8.842712 23.028164 C 8.857317 22.985983 8.873038 22.944145 8.88833 22.902306 C 8.904482 22.85815 8.920289 22.81382 8.937213 22.770008 C 8.953364 22.72834 8.970547 22.687187 8.987299 22.645779 C 9.00491 22.602568 9.022264 22.559097 9.040648 22.516228 C 9.058433 22.474903 9.07716 22.434011 9.095631 22.393118 C 9.114617 22.350937 9.133432 22.308584 9.153191 22.26683 C 9.17252 22.226025 9.192796 22.18573 9.212812 22.145269 C 9.233258 22.104031 9.253448 22.06271 9.274582 22.021902 C 9.295458 21.981697 9.317193 21.942005 9.338757 21.902229 C 9.360578 21.861938 9.382141 21.821646 9.40465 21.781784 C 9.426986 21.742264 9.450181 21.703346 9.47312 21.664257 C 9.496315 21.624912 9.519339 21.58548 9.543308 21.546474 C 9.567105 21.50773 9.591676 21.469587 9.616159 21.431271 C 9.64073 21.392868 9.665128 21.354465 9.690386 21.316494 C 9.715644 21.278522 9.741589 21.241066 9.767533 21.203609 C 9.793392 21.166237 9.819164 21.128868 9.845625 21.091927 C 9.872257 21.054813 9.899662 21.018215 9.927068 20.981533 C 9.954215 20.94519 9.981277 20.908852 10.009026 20.873028 C 10.037032 20.836859 10.065726 20.801208 10.09442 20.765469 C 10.122856 20.730072 10.151379 20.694767 10.180416 20.659885 C 10.209712 20.624834 10.239609 20.590214 10.269506 20.555676 C 10.299316 20.521227 10.329212 20.486778 10.359711 20.452755 C 10.390209 20.418736 10.421394 20.385231 10.452493 20.351727 C 10.483593 20.318306 10.514692 20.285061 10.546392 20.252243 C 10.578178 20.219254 10.610568 20.186779 10.643042 20.154392 C 10.675429 20.122004 10.70799 20.089787 10.740979 20.057915 C 10.773882 20.026215 10.807301 19.994942 10.840893 19.963757 C 10.874569 19.932487 10.908417 19.9013 10.942696 19.870544 C 10.976887 19.83996 11.011423 19.809807 11.046216 19.779823 C 11.081097 19.749668 11.116233 19.719687 11.151715 19.690134 C 11.187024 19.660751 11.222675 19.631802 11.258587 19.603022 C 11.294755 19.573982 11.331181 19.545202 11.36795 19.516768 C 11.404289 19.488762 11.440973 19.461098 11.477828 19.433605 C 11.515285 19.405685 11.552999 19.378109 11.591144 19.350876 C 11.628429 19.324158 11.666059 19.297869 11.703944 19.271751 C 11.742775 19.245033 11.781778 19.218658 11.821124 19.192631 C 11.859356 19.167372 11.897928 19.142372 11.936673 19.117714 C 11.976793 19.092199 12.01717 19.067028 12.057806 19.042288 C 12.096981 19.018406 12.136414 18.994778 12.176105 18.971582 C 12.217341 18.947443 12.258923 18.923645 12.30076 18.900192 C 12.34088 18.877682 12.381259 18.855433 12.421892 18.833612 C 12.464419 18.81076 12.507288 18.788336 12.550414 18.766171 C 12.591308 18.745125 12.632373 18.724419 12.673781 18.70406 C 12.706342 18.68808 12.739244 18.672615 12.772148 18.657066 C 13.73769 19.164623 14.835533 19.453453 15.999957 19.453453 C 17.164467 19.453453 18.262224 19.164623 19.227766 18.657066 C 19.260412 18.672531 19.293058 18.687908 19.325359 18.703714 C 19.367285 18.724335 19.408777 18.745296 19.450188 18.766516 C 19.492798 18.788422 19.535238 18.810587 19.577333 18.833181 C 19.618399 18.855261 19.659206 18.877769 19.699757 18.900536 C 19.741077 18.923731 19.782143 18.947184 19.822865 18.971066 C 19.863157 18.994606 19.903105 19.018576 19.942795 19.042803 C 19.982914 19.067287 20.02269 19.09203 20.06221 19.117199 C 20.101555 19.1422 20.14056 19.167456 20.179306 19.193146 C 20.218222 19.218832 20.256796 19.244949 20.295111 19.271324 C 20.333342 19.297695 20.371399 19.324244 20.409113 19.351219 C 20.446829 19.378195 20.484114 19.405514 20.521225 19.433176 C 20.55851 19.46084 20.595537 19.488762 20.632221 19.517111 C 20.668648 19.545288 20.704731 19.573812 20.740639 19.602591 C 20.776724 19.631542 20.812634 19.660667 20.8482 19.69022 C 20.883509 19.719601 20.918388 19.749411 20.953096 19.779392 C 20.988062 19.809547 21.022854 19.839874 21.057219 19.870716 C 21.091238 19.901215 21.124828 19.93214 21.158249 19.963156 C 21.192097 19.994598 21.225859 20.026215 21.259106 20.058258 C 21.291838 20.089787 21.324055 20.121744 21.356102 20.15379 C 21.388744 20.186436 21.421392 20.219166 21.453436 20.252327 C 21.484879 20.284973 21.515894 20.317963 21.546734 20.351126 C 21.578176 20.384888 21.609533 20.418736 21.640291 20.453014 C 21.67053 20.486691 21.700169 20.520798 21.729721 20.554989 C 21.759876 20.589783 21.790031 20.62466 21.819496 20.660057 C 21.84845 20.694679 21.876715 20.729816 21.904978 20.764954 C 21.933844 20.800863 21.962709 20.836689 21.990889 20.873112 C 22.018553 20.908768 22.045439 20.944935 22.072414 20.981102 C 22.099907 21.017872 22.127399 21.054726 22.154203 21.09201 C 22.180576 21.128696 22.206264 21.165981 22.231953 21.20318 C 22.25798 21.240808 22.2841 21.278437 22.309441 21.316582 C 22.334528 21.354294 22.358755 21.392439 22.383152 21.430584 C 22.40781 21.469156 22.43255 21.507645 22.45652 21.546646 C 22.480232 21.58522 22.503084 21.624397 22.526106 21.663399 C 22.549305 21.702745 22.572668 21.742008 22.595093 21.781784 C 22.617516 21.821472 22.638992 21.861679 22.66073 21.901714 C 22.682379 21.941662 22.704197 21.981525 22.725075 22.021816 C 22.746208 22.062536 22.766314 22.103859 22.786758 22.14501 C 22.806774 22.185474 22.827133 22.225853 22.846464 22.266747 C 22.866226 22.308498 22.884954 22.350679 22.903852 22.392773 C 22.922409 22.433926 22.941223 22.474819 22.959007 22.516315 C 22.977306 22.558838 22.994404 22.601881 23.011927 22.644836 C 23.028938 22.686588 23.046291 22.728168 23.062529 22.770264 C 23.079369 22.81382 23.095091 22.857891 23.111153 22.901876 C 23.126534 22.943888 23.142254 22.985725 23.156858 23.02808 C 23.172321 23.072838 23.186584 23.118111 23.201187 23.163216 C 23.214846 23.205399 23.229023 23.247406 23.241909 23.289932 C 23.255911 23.335724 23.268539 23.382029 23.281687 23.428162 C 23.293711 23.470516 23.306255 23.512697 23.317595 23.555395 C 23.330051 23.602386 23.341135 23.649811 23.352732 23.697147 C 23.363127 23.739498 23.374039 23.781765 23.383659 23.824379 C 23.394569 23.872662 23.40402 23.921371 23.414072 23.96991 C 23.422749 24.012091 23.43203 24.054102 23.440018 24.09654 C 23.449383 24.146196 23.457115 24.196283 23.465532 24.246283 C 23.47249 24.28812 23.480225 24.329702 23.486496 24.371798 C 23.494226 24.423601 23.500412 24.475834 23.507114 24.527895 C 23.512354 24.568531 23.51837 24.60891 23.522921 24.649715 C 23.529106 24.704868 23.533575 24.760452 23.538555 24.81595 C 23.541992 24.854094 23.546288 24.891981 23.549124 24.930212 C 23.553848 24.993183 23.556683 25.056587 23.559776 25.119902 C 23.561323 25.150913 23.563814 25.181841 23.564932 25.21294 C 23.568453 25.307701 23.570257 25.402718 23.570257 25.498075 L 23.570257 26.47049 L 23.570257 27.652355 L 8.429571 27.652355 Z M 25.258818 24.752377 C 25.24198 24.5431 25.217751 24.335114 25.186995 24.128414 C 25.1821 24.095684 25.176258 24.063208 25.171019 24.030561 C 25.159077 23.955734 25.146622 23.881079 25.132788 23.806681 C 25.125486 23.767506 25.117495 23.728504 25.109678 23.689415 C 25.096191 23.62146 25.082102 23.553677 25.067066 23.486153 C 25.057959 23.445431 25.048508 23.404709 25.038887 23.364159 C 25.023167 23.297836 25.00667 23.231773 24.989491 23.16588 C 24.979094 23.125931 24.968699 23.086067 24.957703 23.046207 C 24.938887 22.97765 24.918787 22.909437 24.89834 22.841312 C 24.887514 22.805401 24.877205 22.769403 24.86595 22.73358 C 24.840609 22.652912 24.813805 22.57267 24.786228 22.492603 C 24.778496 22.470264 24.77145 22.447672 24.763548 22.425335 C 24.727293 22.322674 24.689236 22.220612 24.649286 22.119152 C 24.640696 22.097416 24.63133 22.075939 24.622568 22.054205 C 24.590866 21.975426 24.558393 21.896816 24.52446 21.818811 C 24.509424 21.784189 24.49353 21.749996 24.478065 21.715546 C 24.448858 21.6506 24.419306 21.585907 24.38855 21.521648 C 24.370594 21.48402 24.352036 21.44665 24.333567 21.409277 C 24.303413 21.348282 24.272572 21.287544 24.241043 21.227148 C 24.221281 21.189348 24.201439 21.151718 24.181164 21.114178 C 24.148518 21.053782 24.115013 20.993816 24.080992 20.934025 C 24.060545 20.898113 24.040356 20.862204 24.01948 20.82655 C 23.98168 20.762032 23.942591 20.6982 23.903074 20.634457 C 23.884687 20.604733 23.866819 20.574749 23.848089 20.545282 C 23.78924 20.452585 23.728933 20.360573 23.666559 20.269596 C 23.608486 20.184889 23.548779 20.101727 23.488298 20.019253 C 23.470774 19.995371 23.452904 19.971746 23.435205 19.948036 C 23.388731 19.885921 23.341564 19.824581 23.293711 19.76376 C 23.276445 19.741852 23.259348 19.719687 23.241821 19.69795 C 23.178335 19.618744 23.113815 19.540392 23.047924 19.463505 C 23.039333 19.453537 23.030483 19.443829 23.021893 19.433865 C 22.963818 19.366596 22.904713 19.300274 22.844831 19.23481 C 22.824213 19.212303 22.803511 19.190052 22.782721 19.167715 C 22.72963 19.110756 22.675762 19.054485 22.621294 18.998987 C 22.603342 18.980688 22.585728 18.962219 22.567602 18.944092 C 22.496727 18.872959 22.424734 18.802856 22.351709 18.734127 C 22.336678 18.719952 22.321213 18.706207 22.306091 18.692118 C 22.246384 18.636705 22.186073 18.582153 22.125078 18.528374 C 22.101885 18.507927 22.078516 18.487652 22.055149 18.467377 C 21.994324 18.414886 21.932898 18.363255 21.870787 18.312397 C 21.853863 18.298563 21.83728 18.284389 21.820271 18.270643 C 21.742437 18.207758 21.663485 18.146244 21.583673 18.085938 C 21.563744 18.070902 21.543468 18.056297 21.523453 18.041435 C 21.460911 17.995045 21.397938 17.949341 21.334192 17.904495 C 21.309193 17.886883 21.284191 17.869358 21.259106 17.852003 C 21.187973 17.802948 21.116238 17.754841 21.04373 17.70776 C 21.031015 17.699514 21.01856 17.690922 21.005844 17.682762 C 20.93265 17.635769 20.858938 17.589634 20.78437 17.544617 C 20.803614 17.526318 20.821653 17.506819 20.840639 17.488262 C 20.893904 17.436714 20.946222 17.384312 20.997768 17.331047 C 21.02655 17.301323 21.055157 17.271511 21.083336 17.241272 C 21.139606 17.181133 21.194416 17.119793 21.248541 17.057678 C 21.271564 17.031307 21.294672 17.005102 21.317268 16.978298 C 21.374914 16.910088 21.430925 16.840414 21.485996 16.769882 C 21.504038 16.746857 21.522507 16.724178 21.540205 16.700897 C 21.595444 16.628302 21.648794 16.554249 21.701284 16.479507 C 22.036507 16.528732 22.374304 16.553646 22.711071 16.553646 C 23.875582 16.553646 24.973337 16.264818 25.938879 15.757175 C 28.589634 17.013008 30.281458 19.655167 30.281458 22.59827 L 30.281458 24.752377 L 25.258818 24.752377 Z"/>
        </g>
    </g>
</svg>
